<svg xmlns="http://www.w3.org/2000/svg" viewBox="0 0 1024 1024"><defs><style>.cls-1{fill:#86898b;}.cls-2{fill:none;}</style></defs><g id="Layer_2" data-name="Layer 2"><path class="cls-1" d="M662.3,815.44c8.63,0,16.26-.18,23.87,0,11.19.33,17.24,6.23,17.38,17.44.24,19.29.13,38.58.06,57.88-.05,15-5.47,20.3-20.49,20.44-3.31,0-6.62,0-11.43,0v9.87c0,22.29.09,44.57,0,66.86-.07,13.09-5.86,19-18.83,19q-140.72.12-281.41,0c-13.43,0-19-5.94-19.07-19.81-.08-24.89,0-49.79,0-76-5.49,0-10.35.19-15.19,0C327,910.68,320.67,905,320.52,895q-.5-31.92,0-63.86c.16-9.42,6.43-15.22,16-15.64,7.94-.36,15.91-.08,24.94-.08-1.34-4.8-2.28-8.86-3.6-12.8-27.38-82.23-54.65-164.49-82.44-246.58-3.45-10.21-2.36-18.1,3.34-27Q386.71,360.16,494.16,191c1.07-1.68,2.12-3.38,3.25-5,8.52-12.29,20.74-12.51,29-.18C534.2,197.34,541.51,209.25,549,221q97.71,153.52,195.55,307c6.09,9.52,7.48,17.83,3.76,28.81-28,82.71-55.38,165.63-82.94,248.5C664.35,808.35,663.49,811.48,662.3,815.44Zm-134-269.93c2.31.94,4.44,1.82,6.59,2.68,28.71,11.52,45.67,41.31,40,70.38-6,31.09-31.47,52.82-62.17,53.1-30.89.28-56.9-21-63.27-51.7a62.64,62.64,0,0,1,38.48-71c7.16-2.83,8.23-6.49,8.22-13.11q-.25-137.7-.12-275.42v-12c-2.67,3.67-3.85,5.11-4.85,6.67Q400.43,397.72,309.9,540.44c-2.06,3.25-2.57,8.89-1.35,12.61,28,84.83,56.3,169.53,84.36,254.32,2,5.94,4.52,8.25,11.09,8.22q107.78-.39,215.54,0c7.13,0,9.68-2.53,11.74-8.77q41.81-126.24,84.12-252.32c2-5.8,1.7-10.23-1.76-15.65q-90.23-141.15-180-282.56c-1.29-2-2.93-3.84-5.37-7ZM385,911.67v62.66H639.21V911.67Zm286.28-63.59H352.8v30.68H671.26ZM512.41,639.7a31.89,31.89,0,1,0-1.32-63.77c-17.19.41-31.38,15.32-31,32.56A32,32,0,0,0,512.41,639.7Z"/><path class="cls-1" d="M145.09,383.87c31.44,1.65,31.57,1.79,31.57,32.9,0,15,.13,30,0,44.91-.15,12.38-6.06,18.25-18.51,18.36q-29.44.24-58.88,0c-12.38-.11-18.22-6-18.33-18.51-.16-18.63-.07-37.26,0-55.89,0-16.26,5.11-21.25,21.54-21.36,3,0,6,0,9.13,0,9.06-145.43,96.5-230,221.6-286.72H144.72c0,9.56.12,19.09,0,28.63-.2,12.45-6,18.44-18.36,18.5q-45.4.24-90.81,0c-12.47-.06-18.43-6-18.49-18.36q-.21-45.4,0-90.81C17.07,23,23,17.1,35.36,17q45.4-.22,90.81,0c12.46.05,18.29,5.95,18.51,18.34.17,9.3,0,18.61,0,28.71H448.13c0-9.26-.11-18.77,0-28.27.18-13,5.92-18.75,19-18.79q44.91-.16,89.82,0c13,.06,18.65,5.93,18.82,19,.12,9.24,0,18.49,0,28.26H879.29c0-9.24-.09-18.73,0-28.22.16-13.17,5.79-19,18.76-19.09q44.91-.2,89.82,0c13.14.05,19,5.81,19.1,18.76q.19,44.91,0,89.82c0,13.12-5.84,19-18.78,19.09q-44.91.19-89.82,0c-13.13,0-18.89-5.82-19.08-18.78-.14-9.27,0-18.53,0-28.44H690.75C815.53,153.9,902.67,238.26,912.5,384.31c4.31,0,9.5-.26,14.66.06,9.49.58,15.69,6.37,15.84,15.86q.54,31.92,0,63.86c-.16,9.48-6.37,15.69-15.83,15.84q-31.93.52-63.87,0c-9.49-.16-15.66-6.35-15.81-15.84q-.51-31.92,0-63.87c.15-9.5,6.31-15.25,15.83-15.86,4.91-.31,9.85-.05,15.69-.05.38-26.92-4.41-52.12-13.15-76.63-18.41-51.67-51.32-92.69-94-126.33-53.55-42.27-128.84-72.82-196-79.66,0,8,.08,15.94,0,23.86-.18,13.15-5.84,19.09-18.75,19.14q-44.91.21-89.82,0c-13.46,0-19-5.91-19.16-19.74-.08-7-.09-14-.18-20.95a11.68,11.68,0,0,0-.8-2.5c-45.63,6.1-89.37,18.87-130.62,39.49-63.15,31.57-114.62,75.7-147,139.69-14.14,27.91-22,57.65-24.36,88.82C144.79,374.06,145.09,378.66,145.09,383.87ZM49.38,112.13H112V49.43H49.38ZM480.59,49.36v62.83h62.65V49.36Zm494,63V49.55H911.94v62.8ZM113.31,416.65v30.88H144V416.65Zm766.77-.09v31.05H910.6V416.56Z"/><rect class="cls-2" width="1024" height="1024"/></g></svg>