<svg xmlns="http://www.w3.org/2000/svg" viewBox="0 0 1024 1024"><defs><style>.cls-1{fill:#86898b;}.cls-2{fill:none;}</style></defs><g id="Layer_2" data-name="Layer 2"><path class="cls-1" d="M128.68,511.58q0-196.09,0-392.18c0-53.25,33.2-86.38,86.56-86.39q232.52,0,465-.16c9.73,0,16.93,2.84,23.8,9.75q90.73,91.31,182,182.07c6.34,6.31,9.23,13,9.23,22q-.27,330.3-.17,660.61c0,49.84-34.16,83.83-84.13,83.84q-298.87.06-597.74,0c-50.61,0-84.57-33.89-84.59-84.37Q128.63,709.16,128.68,511.58ZM671.64,65H659.28q-222,0-444,0c-36,0-54.67,18.71-54.67,54.7V903.88c0,36.73,18.5,55.32,55.07,55.32H808.34c36.07,0,54.9-18.69,54.9-54.5q0-318.27,0-636.56V256.57H851.51q-49.39,0-98.78,0c-17.12,0-32.92-4.52-46.83-14.49-22.32-16-33.93-38-34.18-65.39C671.38,139.84,671.64,103,671.64,65ZM835.55,224.32,703.67,92.42c0,27.94-.6,57.85.2,87.72.61,22.53,19,42.69,41.67,43.8C776.27,225.45,807.13,224.32,835.55,224.32Z"/><path class="cls-1" d="M591.78,320.45H776.4c3,0,6.06-.29,9,.25,8.59,1.59,13.78,6.9,13.78,15.71s-5.22,14.13-13.8,15.71c-3.23.59-6.64.26-10,.26H405.14c-13.47-.08-20.88-5.76-20.87-16s7.38-15.94,20.88-15.94Q498.47,320.42,591.78,320.45Z"/><path class="cls-1" d="M432.09,607.89H616.71c3,0,6.06-.29,9,.25,8.6,1.59,13.78,6.9,13.78,15.71s-5.22,14.13-13.8,15.71c-3.23.59-6.63.26-10,.26H245.45c-13.47-.08-20.88-5.76-20.87-16S232,607.9,245.46,607.9Q338.78,607.86,432.09,607.89Z"/><path class="cls-1" d="M400.16,448.2H247.47c-3,0-6.06.29-9-.25-8.58-1.61-13.8-6.87-13.81-15.71s5.18-14.12,13.78-15.72c2.9-.54,6-.24,9-.24H552.82c3,0,6.06-.3,9,.24,8.6,1.58,13.8,6.88,13.81,15.69s-5.21,14.11-13.78,15.74c-2.9.55-6,.25-9,.25Z"/><path class="cls-1" d="M640.68,512.07H776.41c3,0,6.06-.29,9,.25,8.6,1.59,13.79,6.9,13.78,15.71s-5.23,14.1-13.81,15.71c-2.9.55-6,.25-9,.25H502.94c-3,0-6.06.3-9-.25-8.57-1.62-13.79-6.89-13.78-15.73s5.21-14.11,13.8-15.7c2.91-.53,6-.24,9-.24Z"/><path class="cls-1" d="M335.87,256.57q-45.42,0-90.82,0c-13.2,0-20.74-6.14-20.47-16.37.26-9.89,7.49-15.53,20.28-15.54q91.31,0,182.62,0c13.22,0,20.76,6.11,20.49,16.34-.26,9.87-7.55,15.54-20.29,15.56Q381.77,256.64,335.87,256.57Z"/><path class="cls-1" d="M336,544c-31.26,0-62.53.1-93.8-.07-10.85-.06-17.79-6.76-17.63-16.16s7.08-15.38,18.13-15.69c2.33-.07,4.66,0,7,0H424.34c16.12,0,23.82,5.3,23.63,16.22S440.27,544,423.83,544Z"/><path class="cls-1" d="M336.38,799.51q45.9,0,91.81,0c12.58,0,19.86,6.05,19.78,16.05s-7.39,15.84-20,15.85q-91.82.06-183.62,0c-12.53,0-19.85-6.1-19.77-16.07s7.33-15.8,20-15.83Q290.47,799.44,336.38,799.51Z"/><path class="cls-1" d="M703.06,448.2c-25.28,0-50.56.06-75.84,0-12.32,0-19.71-6.46-19.39-16.44.31-9.65,7.36-15.43,19.37-15.44q76.35-.09,152.68,0c12.29,0,19.73,6.46,19.41,16.42-.32,9.57-7.48,15.42-19.39,15.46C754.28,448.26,728.67,448.2,703.06,448.2Z"/><path class="cls-1" d="M512.93,703.7c25,0,49.9-.05,74.85,0,12.58,0,19.89,6,19.88,15.95s-7.34,15.93-19.91,15.94q-75.84.07-151.68,0c-12.58,0-19.88-6-19.87-16s7.29-15.9,19.89-15.93C461.71,703.65,487.32,703.7,512.93,703.7Z"/><path class="cls-1" d="M575.81,831.45c-25.28,0-50.56,0-75.84,0-12.59,0-19.89-6-19.89-15.95s7.27-15.93,19.87-16q75.84-.07,151.68,0c12.59,0,19.89,6,19.9,15.93s-7.32,15.93-19.88,16C626.37,831.5,601.09,831.45,575.81,831.45Z"/><path class="cls-1" d="M304.45,703.7c20,0,39.91-.06,59.87,0,12.56,0,19.86,6.07,19.78,16.06s-7.4,15.82-20,15.84q-59.86.07-119.74,0c-12.53,0-19.84-6.1-19.76-16.07s7.34-15.78,20-15.82C264.53,703.65,284.49,703.7,304.45,703.7Z"/><path class="cls-1" d="M718.56,735.63c-20,0-39.92.09-59.88,0-11.76-.07-18.89-6.22-18.91-15.91s7.06-15.93,18.84-16q60.87-.13,121.74,0c11.75,0,18.91,6.23,18.94,15.89s-7.17,15.91-18.86,16C759.8,735.72,739.18,735.63,718.56,735.63Z"/><path class="cls-1" d="M289.1,320.45c14.63,0,29.27-.08,43.9,0,11.85.09,19,6,19.16,15.68s-7,16.15-18.64,16.19q-45.39.18-90.8,0c-11-.05-18-6.31-18.14-15.66-.17-9.72,7-16.08,18.62-16.18C258.5,320.35,273.8,320.45,289.1,320.45Z"/><path class="cls-1" d="M735.24,639.82c-14.63,0-29.27.07-43.91,0-12.45-.07-19.79-6.22-19.63-16.2.16-9.7,7.22-15.65,19.13-15.68q44.91-.13,89.81,0c11.61,0,18.81,6.48,18.65,16.16s-7.34,15.62-19.15,15.7C765.18,639.9,750.21,639.82,735.24,639.82Z"/><path class="cls-1" d="M751.57,799.53c10.31,0,20.63-.22,30.93.07s16.86,6.92,16.79,16-6.81,15.64-17,15.77q-30.93.36-61.86,0c-10.16-.13-16.84-6.93-16.77-16s6.74-15.5,17-15.77S741.26,799.53,751.57,799.53Z"/><rect class="cls-2" width="1024" height="1024"/></g></svg>